PathFileType	4	(X/Y/Z)	C:\Users\Basilio\Documents\Thesis Gigler\squatting_fais\c3dfiles\040\SJ_pre3\markers_experimental.trc
DataRate	CameraRate	NumFrames	NumMarkers	Units	OrigDataRate	OrigDataStartFrame	OrigNumFrames
200.000000	200.000000	4	63	mm	200.000000	469	1251
Frame#	Time	FHD			LBHD			RBHD			C7			T10			CLAV			LSHO			LUUPA			LMUPA			LDUPA			LLEP			LMEP			LRAD			LUL			LRFIN			RSHO			RUPA1			RMUPA			RDUPA			RLEP			RMEP			RRAD			RUL			RUFIN			LASI			RASI			USACR			LSACR			RSACR			LTHI1			LTHI2			LTHI3			LTHI4			LLFC			LMFC			LTIB1			LTIB2			LTIB3			LTIB4			LLMAL			LMMAL			LHEE			LMT1			LMT2			LMT5			RTHI			RTHI2			RTHI3			RTHI4			RLFC			RMFC			RTIB1			RTIB2			RTIB3			RTIB4			RLMAL			RMMAL			RHEE			RMT1			RMT2			RMT5			*61			*62			
		X1	Y1	Z1	X2	Y2	Z2	X3	Y3	Z3	X4	Y4	Z4	X5	Y5	Z5	X6	Y6	Z6	X7	Y7	Z7	X8	Y8	Z8	X9	Y9	Z9	X10	Y10	Z10	X11	Y11	Z11	X12	Y12	Z12	X13	Y13	Z13	X14	Y14	Z14	X15	Y15	Z15	X16	Y16	Z16	X17	Y17	Z17	X18	Y18	Z18	X19	Y19	Z19	X20	Y20	Z20	X21	Y21	Z21	X22	Y22	Z22	X23	Y23	Z23	X24	Y24	Z24	X25	Y25	Z25	X26	Y26	Z26	X27	Y27	Z27	X28	Y28	Z28	X29	Y29	Z29	X30	Y30	Z30	X31	Y31	Z31	X32	Y32	Z32	X33	Y33	Z33	X34	Y34	Z34	X35	Y35	Z35	X36	Y36	Z36	X37	Y37	Z37	X38	Y38	Z38	X39	Y39	Z39	X40	Y40	Z40	X41	Y41	Z41	X42	Y42	Z42	X43	Y43	Z43	X44	Y44	Z44	X45	Y45	Z45	X46	Y46	Z46	X47	Y47	Z47	X48	Y48	Z48	X49	Y49	Z49	X50	Y50	Z50	X51	Y51	Z51	X52	Y52	Z52	X53	Y53	Z53	X54	Y54	Z54	X55	Y55	Z55	X56	Y56	Z56	X57	Y57	Z57	X58	Y58	Z58	X59	Y59	Z59	X60	Y60	Z60	X61	Y61	Z61	X62	Y62	Z62	X63	Y63	Z63	

470	2.345	13.72105503082276	1118.957397460938	-888.5181274414065	-114.5951309204102	1076.057739257813	-928.9978637695315	-171.76806640625	1047.019287109375	-796.2941894531252	-192.7288818359376	978.059509277344	-847.9008789062502	-432.4582519531251	789.291198730469	-853.8789062500002	-127.5173797607422	841.2221679687502	-841.102233886719	-115.0613632202149	898.4165039062502	-1012.92724609375	-234.5183868408204	851.402526855469	-1176.362548828125	-260.4205627441407	810.6630859375002	-1172.065673828125	-286.3012695312501	833.7761840820315	-1220.732299804688	-339.5936889648438	825.452819824219	-1263.501708984375	-381.6942443847657	881.6824340820315	-1233.352783203125	-541.8334350585939	697.3923339843751	-1083.803833007813	-516.8230590820314	642.3782958984376	-1126.429077148438	-497.2286071777345	677.2249755859376	-1032.4755859375	-138.9317779541016	889.6749267578127	-672.5855712890626	-263.9369812011719	897.9851684570315	-516.2413330078126	-283.2975769042969	853.167175292969	-505.9954223632814	-311.6317138671876	887.302917480469	-465.8653564453126	-365.0482482910157	857.5286254882815	-423.9865722656251	-424.482147216797	902.7399902343752	-468.9929199218751	-477.079315185547	689.1376953125001	-626.3884277343751	-477.3558349609376	634.6001586914064	-573.0219726562501	-431.2687072753907	656.5487670898439	-674.2155761718751	-428.9610290527345	586.4588012695314	-957.402526855469	-429.4035034179689	587.0236206054689	-746.1101684570314	-566.2617187500001	698.9451904296876	-850.2658691406252	-591.7783203125001	678.7915039062501	-878.647644042969	-596.3783569335939	680.0735473632814	-824.0969848632815	-405.254608154297	472.1838684082032	-1080.205932617188	-323.3145446777344	488.6497497558595	-1100.268798828125	-307.6746520996094	531.8344116210939	-1089.614501953125	-279.1745300292969	449.2162170410157	-1105.054321289063	-163.5308380126953	428.6942138671876	-1118.269775390625	-150.8933868408203	383.9050598144532	-995.9527587890627	-225.2464294433594	233.4533386230469	-1097.19140625	-309.4210205078126	251.1550903320313	-1126.869995117188	-278.4038085937501	218.8591918945313	-1117.332397460938	-315.9064636230469	147.7008209228516	-1092.5107421875	-419.1458435058595	105.8707962036133	-1101.66650390625	-373.5842285156251	98.91203308105472	-1025.59912109375	-482.9739685058595	49.53010177612306	-1063.7490234375	-260.4603271484376	57.07755279541017	-1078.155517578125	-269.6775512695313	55.32591629028322	-1123.819580078125	-322.6610412597657	33.10553741455079	-1166.1376953125	-385.9590148925782	497.9140625000001	-622.7590942382814	-320.2470397949219	505.5915527343751	-614.5093994140626	-304.1330566406251	534.5157470703126	-624.3554077148439	-263.2693481445313	444.4272766113282	-603.5656738281251	-177.4911499023438	406.4799804687501	-596.4476928710939	-156.867660522461	383.9460449218751	-727.8976440429689	-229.0750427246094	244.5523223876954	-617.4352416992189	-339.4414978027344	237.6186218261719	-613.0582275390626	-304.6329650878907	204.7598876953126	-614.8726196289064	-317.2886047363282	155.0705108642578	-643.8397216796876	-430.6995849609376	103.4228668212891	-636.5854492187501	-390.8034973144532	94.56214904785158	-716.6995849609376	-493.1817321777345	51.1046485900879	-691.8491210937501	-275.9824523925782	53.48252105712892	-641.0986328125001	-288.3468627929688	58.10126876831056	-603.4476928710939	-341.8864440917969	37.86197662353516	-560.7039794921876	nan	nan	nan	nan	nan	nan	
471	2.35	14.19954299926758	1119.013793945313	-888.6441040039065	-114.4858932495117	1076.54638671875	-929.312194824219	-171.7081604003907	1047.621826171875	-796.581726074219	-192.7665557861329	979.0621337890627	-848.0834960937502	-432.4547729492189	789.8045654296877	-854.186950683594	-127.7959823608399	841.8757934570315	-841.4006347656252	-115.3894500732422	898.945983886719	-1013.17138671875	-234.6642456054688	851.9462890625002	-1176.734375	-260.5881958007813	811.290954589844	-1172.423095703125	-286.4816589355469	834.2448730468752	-1221.131591796875	-339.7878112792969	826.0189208984377	-1263.814208984375	-381.8523254394532	882.283630371094	-1233.645141601563	-541.9976196289064	698.0567626953126	-1083.909790039063	-517.1461791992189	642.9737548828126	-1126.818359375	-497.3908081054689	677.8110351562501	-1032.650634765625	-138.8850708007813	890.367858886719	-672.8192138671876	-263.6286926269532	898.7208251953127	-516.3107299804689	-283.2746582031251	853.4165649414065	-505.9378662109376	-311.3021240234376	887.746276855469	-466.219451904297	-364.6286926269532	857.8919067382815	-424.1437988281251	-424.329559326172	903.2652587890627	-468.9570312500001	-476.8480529785157	689.5827636718751	-626.4367065429689	-476.927459716797	634.9419555664064	-573.3963623046876	-430.815643310547	656.9819335937501	-674.3991088867189	-428.8898315429689	586.8041992187501	-957.6210937500002	-429.1246337890626	587.9716796875001	-746.2293090820314	-566.3937377929689	699.6433715820314	-850.3777465820315	-591.6224975585939	679.2720947265626	-878.7820434570315	-596.3629760742189	680.7340087890626	-824.0776977539065	-405.5663452148439	472.6754455566407	-1080.34716796875	-323.1814880371094	488.8301391601564	-1100.471069335938	-307.8861694335938	532.2025756835939	-1089.87451171875	-279.4893188476563	449.5551147460939	-1105.318725585938	-163.9626770019532	428.9272766113282	-1118.55810546875	-150.5156402587891	384.0922851562501	-995.8780517578127	-225.2526092529297	232.6752166748047	-1097.500610351563	-309.2371520996094	250.8917388916016	-1127.111450195313	-278.6682128906251	218.9716339111329	-1117.558227539063	-316.5310668945313	148.9015502929688	-1092.686401367188	-419.1894531250001	105.8001480102539	-1101.746704101563	-373.4893798828126	98.87222290039065	-1025.766479492188	-483.029998779297	49.42639541625978	-1063.85107421875	-260.5369873046876	57.06415176391603	-1078.200317382813	-269.7257385253907	55.34841918945314	-1123.83544921875	-322.7337646484376	33.10260391235352	-1166.126708984375	-386.2191162109376	498.3774414062501	-622.6093750000001	-320.4661560058594	506.0459594726564	-614.2274780273439	-304.5075683593751	535.2201538085939	-624.3182373046876	-263.5147705078126	444.9476623535157	-603.4219970703126	-177.8896179199219	406.8084411621095	-596.4653320312501	-156.8849792480469	384.1947021484376	-727.8822631835939	-229.7789001464844	243.7212982177735	-617.7844848632814	-339.6597290039063	237.632064819336	-613.0234985351564	-304.8297729492188	204.9424591064454	-614.6804809570314	-317.4706420898438	155.3276824951172	-643.7184448242189	-430.6760559082032	103.3975830078125	-636.5449218750001	-390.8347473144532	94.63285064697267	-716.6530151367189	-493.1749267578126	51.0946502685547	-691.8404541015626	-275.9852905273438	53.62496566772462	-641.0032348632814	-288.2902832031251	58.03950119018556	-603.3228759765626	-341.9095764160157	37.8613510131836	-560.6702880859376	nan	nan	nan	nan	nan	nan	
472	2.355	14.12266254425049	1119.721435546875	-888.967224121094	-114.3766860961914	1077.218017578125	-929.9815673828127	-171.9168090820313	1048.307373046875	-796.947692871094	-192.9596862792969	979.963317871094	-848.4127197265627	-432.5089416503907	790.3035888671877	-854.3256835937502	-128.0474090576172	842.4846191406252	-841.6367797851565	-115.4287261962891	899.6733398437502	-1013.608276367188	-234.8638763427735	852.4021606445315	-1177.08349609375	-260.8073120117188	811.8343505859377	-1172.808349609375	-286.5901794433594	834.6507568359377	-1221.284301757813	-340.2375183105469	826.6372680664065	-1263.464477539063	-381.9899291992188	882.782409667969	-1233.9072265625	-542.0253295898439	698.6365966796876	-1084.024780273438	-517.3784179687501	643.5462036132814	-1126.91796875	-497.6608886718751	678.3392944335939	-1032.83642578125	-138.8990478515625	891.0826416015627	-673.1227416992189	-263.3825683593751	899.424255371094	-516.3286743164064	-282.9187622070313	853.861267089844	-506.1354064941407	-310.9857177734376	888.1602783203127	-466.6701965332032	-364.4866333007813	858.232604980469	-424.0788879394532	-424.1339721679689	903.648376464844	-469.0223083496095	-476.5259094238282	690.1549682617189	-626.4610595703126	-476.5290832519532	635.4932250976564	-573.4716796875001	-430.6081848144532	657.6307983398439	-674.7536621093751	-428.9171447753907	587.0911254882814	-957.7224731445315	-428.9772338867189	588.7630615234376	-746.2763671875001	-566.4426269531251	700.2878417968751	-850.4157714843752	-591.6002197265626	679.7532958984376	-878.8384399414065	-596.3422241210939	681.3807373046876	-824.0926513671877	-405.885711669922	473.1130371093751	-1080.54736328125	-323.9732055664063	489.4198608398439	-1100.78564453125	-308.1443176269532	532.4582519531251	-1090.12158203125	-279.4880065917969	449.582733154297	-1105.656860351563	-164.3077545166016	429.2023925781251	-1118.960571289063	-150.8318328857422	384.9046936035157	-996.497985839844	-225.7227783203126	233.1335144042969	-1097.905151367188	-309.8858032226563	251.2553863525391	-1127.407104492188	-278.8521118164063	219.0522003173829	-1117.8525390625	-316.3949279785157	148.6089172363282	-1092.7119140625	-419.2864685058595	105.7826080322266	-1101.844970703125	-373.5609436035157	98.93367767333987	-1025.849731445313	-483.0899963378907	49.36997985839845	-1063.863037109375	-260.5917358398438	57.14858245849611	-1078.244750976563	-269.7003479003907	55.35194396972658	-1123.897216796875	-322.7567749023438	33.05879211425782	-1166.192749023438	-386.4718322753907	498.8523559570314	-622.3908081054689	-320.0950622558594	506.8983764648439	-613.6879272460939	-304.7749938964844	535.4531860351564	-624.1812133789064	-263.5615234375001	445.0469055175782	-603.3646850585939	-178.1874084472657	407.1228027343751	-596.2966918945314	-157.1381378173828	384.619598388672	-727.8639526367189	-229.2933807373047	244.8416748046876	-617.2845458984376	-339.8081665039063	237.7609863281251	-613.0607910156251	-305.1277465820313	205.4109039306641	-614.5758666992189	-317.5855102539063	155.4613189697266	-643.6052856445314	-430.7029418945314	103.3384704589844	-636.5909423828126	-390.7884216308595	94.62906646728517	-716.6195678710939	-493.1759338378907	51.08903121948244	-691.8553466796876	-275.9685974121094	53.55525207519533	-641.0150146484376	-288.3535766601563	58.06139373779298	-603.3747558593751	-341.8512268066407	37.86030197143555	-560.6606445312501	nan	nan	nan	nan	nan	nan	
473	2.36	14.32088565826416	1120.446044921875	-889.3563232421877	-114.4261703491211	1077.957397460938	-930.293640136719	-171.8554229736328	1048.940673828125	-797.2562255859377	-193.0444793701172	980.3781738281252	-848.7817993164065	-432.6803283691407	790.7915039062502	-854.5119628906252	-128.1056823730469	843.342956542969	-841.943786621094	-115.4025573730469	899.7803955078127	-1014.074645996094	-235.0619049072266	852.8831176757815	-1177.3896484375	-260.9069519042969	812.153259277344	-1173.083984375	-286.7270202636719	835.0638427734377	-1221.668212890625	-340.2313842773438	826.9370727539065	-1264.486938476563	-382.2307128906251	883.172302246094	-1234.183959960938	-542.1046142578126	699.1864013671876	-1084.187622070313	-517.6172485351564	644.0169067382814	-1127.05078125	-497.7177734375001	678.7492065429689	-1033.007446289063	-138.6836090087891	891.764587402344	-673.6357421875001	-263.2637329101563	899.995544433594	-516.5960083007814	-282.4361877441407	854.3734130859377	-506.566619873047	-310.9088439941407	888.708679199219	-466.9360656738282	-364.4844665527344	858.5661621093752	-423.4972534179689	-424.0100402832032	903.945495605469	-469.1973876953126	-476.2786865234376	690.5644531250001	-626.5428466796876	-476.165985107422	635.8706054687501	-573.4954223632814	-430.807098388672	658.4870605468751	-675.0582885742189	-427.8685913085939	587.0661010742189	-958.4947509765627	-428.5433349609376	589.4472656250001	-746.5557250976564	-566.7186889648439	700.5090332031251	-850.6778564453127	-591.5540771484376	680.3223876953126	-878.851989746094	-596.3145141601564	681.9355468750001	-824.1174926757815	-406.287078857422	473.6065368652345	-1080.718017578125	-324.2973022460938	489.8092346191407	-1101.11328125	-308.5167846679688	532.7782592773439	-1090.452880859375	-279.9182434082032	449.8350219726564	-1105.996704101563	-164.7031860351563	429.5396118164064	-1119.385864257813	-151.0217895507813	384.6324157714845	-996.9099121093752	-225.7682647705079	232.8221893310547	-1097.98974609375	-310.1744384765626	251.2970581054688	-1127.681762695313	-279.0118103027344	219.0968017578126	-1118.11083984375	-316.5268554687501	148.7648620605469	-1092.858520507813	-419.5304260253907	105.8460311889649	-1101.995361328125	-373.6546630859376	98.90515899658206	-1025.937622070313	-483.1370544433595	49.3452835083008	-1063.911865234375	-260.7337341308594	57.20144653320314	-1078.23388671875	-269.7546081542969	55.35604095458986	-1123.9658203125	-322.7194824218751	33.02166748046876	-1166.232666015625	-386.7756652832032	499.2953186035157	-622.2346801757814	-320.5314636230469	507.3972167968751	-613.3757324218751	-304.8956909179688	535.7672729492189	-624.1933593750001	-263.8501281738282	445.5577087402345	-603.1394653320314	-178.4037628173828	407.2750244140626	-596.2367553710939	-157.2714080810547	384.896942138672	-727.6713867187501	-230.0682983398438	244.0601959228516	-617.6398925781251	-340.1375427246094	237.475814819336	-612.7698364257814	-305.4619445800782	205.1607513427735	-614.4893188476564	-317.6166687011719	155.5321350097657	-643.4339599609376	-430.7396240234376	103.4411010742188	-636.6260986328126	-390.7862854003907	94.73569488525392	-716.5322265625001	-493.192596435547	51.0934295654297	-691.8349609375001	-276.0003051757813	53.68707275390626	-641.0032348632814	-288.3213806152344	57.96043777465822	-603.2404785156251	-341.8805541992188	37.97503280639649	-560.5905151367189	nan	nan	nan	nan	nan	nan	
